<svg xmlns="http://www.w3.org/2000/svg" version="1.1" xmlns:xlink="http://www.w3.org/1999/xlink" xmlns:svgjs="http://svgjs.com/svgjs" width="1628" height="885" preserveAspectRatio="none" viewBox="0 0 1628 885"><g mask="url(&quot;#SvgjsMask1016&quot;)" fill="none"><rect width="1628" height="885" x="0" y="0" fill="rgba(1, 0, 26, 1)"></rect><path d="M -963.6610129109699,617.5 C -855.06,547.5 -637.86,286.1 -420.66101291096993,267.5 C -203.46,248.9 -94.86,499.7 122.33898708903007,524.5 C 339.54,549.3 448.14,357.3 665.3389870890301,391.5 C 882.54,425.7 1015.81,700.3 1208.33898708903,695.5 C 1400.87,690.7 1544.07,433.1 1628,367.5" stroke="rgba(120, 7, 220, 1)" stroke-width="2"></path><path d="M -108.6142485428067,664.5 C -0.01,555.5 217.19,129.5 434.3857514571933,119.5 C 651.59,109.5 760.19,625.7 977.3857514571932,614.5 C 1194.59,603.3 1303.19,40.5 1520.3857514571932,63.5 C 1737.59,86.5 2041.86,705.7 2063.3857514571932,729.5 C 2084.91,753.3 1715.08,291.9 1628,182.5" stroke="rgba(11, 143, 234, 1)" stroke-width="2"></path></g><defs><mask id="SvgjsMask1016"><rect width="1628" height="885" fill="#ffffff"></rect></mask></defs></svg>